<?xml version="1.0" standalone="no"?>
<!DOCTYPE svg PUBLIC "-//W3C//DTD SVG 20010904//EN"
 "http://www.w3.org/TR/2001/REC-SVG-20010904/DTD/svg10.dtd">
<svg version="1.0" xmlns="http://www.w3.org/2000/svg"
 width="306.000000pt" height="306.000000pt" viewBox="0 0 306.000000 306.000000"
 preserveAspectRatio="xMidYMid meet">
<metadata>
Created by potrace 1.11, written by Peter Selinger 2001-2013
</metadata>
<g transform="translate(0.000000,306.000000) scale(0.100000,-0.100000)"
fill="#000000" stroke="none">
<path d="M1402 3048 c-358 -41 -640 -184 -867 -439 -124 -140 -237 -376 -270
-564 -14 -86 -14 -299 1 -385 56 -314 237 -593 504 -779 l85 -59 -2 140 -1
140 -65 63 c-120 116 -199 240 -248 389 -40 119 -44 148 -44 306 1 109 5 152
23 220 75 277 255 495 527 637 48 25 196 78 245 87 19 3 46 9 60 12 57 13 287
13 365 -1 327 -58 613 -265 755 -545 162 -321 122 -718 -100 -999 -23 -28 -68
-78 -102 -111 l-62 -59 0 -136 c-1 -74 0 -135 2 -135 25 0 185 125 265 207
146 150 251 337 303 538 24 95 28 130 28 255 1 157 -4 207 -34 315 -112 414
-458 749 -894 865 -144 38 -340 54 -474 38z"/>
<path d="M1411 2594 c-496 -72 -801 -548 -637 -994 24 -65 72 -147 125 -213
l46 -58 41 44 c22 25 62 61 87 80 38 29 44 38 34 49 -157 166 -180 434 -53
623 108 162 304 260 500 250 236 -11 433 -152 508 -362 26 -74 34 -194 18
-264 -16 -71 -71 -186 -110 -227 l-31 -34 38 -27 c45 -33 90 -77 110 -108 9
-13 19 -23 23 -23 11 0 94 110 128 170 63 113 91 222 89 359 -4 455 -438 804
-916 735z"/>
<path d="M1435 2137 c-132 -44 -212 -141 -222 -270 -7 -84 22 -159 84 -221 63
-63 120 -87 218 -93 73 -5 86 -3 145 24 304 138 220 555 -115 570 -40 1 -87
-3 -110 -10z"/>
<path d="M1428 1384 c-205 -47 -344 -221 -337 -421 10 -265 166 -729 294 -871
104 -116 186 -116 288 -2 53 59 141 231 186 365 30 91 79 274 88 330 3 17 8
48 12 71 4 22 9 72 10 110 9 274 -261 482 -541 418z"/>
</g>
</svg>
