<?xml version="1.0" standalone="no"?>
<!DOCTYPE svg PUBLIC "-//W3C//DTD SVG 20010904//EN"
 "http://www.w3.org/TR/2001/REC-SVG-20010904/DTD/svg10.dtd">
<svg version="1.0" xmlns="http://www.w3.org/2000/svg"
 width="512.000000pt" height="512.000000pt" viewBox="0 0 512.000000 512.000000"
 preserveAspectRatio="xMidYMid meet">
<metadata>
Created by potrace 1.11, written by Peter Selinger 2001-2013
</metadata>
<g transform="translate(0.000000,512.000000) scale(0.100000,-0.100000)"
fill="#000000" stroke="none">
<path d="M2497 4135 c-1 -2 -33 -5 -72 -8 -154 -13 -304 -56 -460 -132 -329
-162 -561 -444 -652 -794 -32 -121 -39 -331 -17 -461 48 -276 193 -524 418
-714 43 -37 158 -116 168 -116 2 0 3 61 2 135 l-1 135 -71 70 c-128 126 -214
273 -264 445 -19 68 -22 104 -22 235 0 132 3 167 23 235 99 342 359 600 701
699 121 34 140 37 280 41 140 4 203 -4 335 -41 348 -98 615 -364 707 -705 32
-121 33 -338 0 -459 -45 -169 -134 -320 -260 -445 l-76 -77 -1 -134 c0 -74 2
-134 5 -134 14 0 133 87 196 142 184 164 307 365 371 607 32 119 40 341 17
460 -46 241 -147 441 -311 612 -208 217 -477 352 -788 394 -41 6 -223 13 -228
10z"/>
<path d="M2527 3684 c-1 -1 -29 -4 -62 -7 -394 -39 -703 -365 -703 -744 0
-115 20 -205 67 -308 46 -97 161 -247 161 -208 0 13 72 87 117 120 l41 30 -35
44 c-163 205 -146 492 40 679 101 101 242 161 387 163 108 2 153 -6 238 -39
338 -134 450 -548 220 -812 l-29 -34 38 -27 c21 -15 59 -51 85 -80 l47 -52 33
36 c194 219 241 521 122 784 -66 143 -189 274 -335 354 -58 32 -173 73 -225
81 -96 16 -112 17 -157 19 -27 1 -49 1 -50 1z"/>
<path d="M2437 3206 c-118 -50 -185 -140 -194 -260 -9 -122 60 -230 184 -288
59 -28 71 -30 146 -26 129 7 228 69 279 174 32 67 32 179 0 244 -28 60 -84
116 -146 148 -76 38 -190 42 -269 8z"/>
<path d="M2470 2468 c-78 -13 -183 -72 -239 -134 -80 -87 -114 -178 -110 -292
3 -72 28 -220 54 -317 9 -33 18 -67 20 -75 13 -60 76 -224 123 -320 44 -91 69
-128 118 -177 45 -46 70 -63 91 -65 15 0 35 -2 43 -3 29 -3 88 35 133 85 127
142 287 612 296 873 10 271 -244 475 -529 425z"/>
</g>
</svg>
